# xmcd
#
# Track frame offsets:
#	150
#	13734
#	25734
#	43091
#	60935
#	74934
#	89361
#	102639
#	116825
#	132078
#	147446
#	158705
#	173200
#	187312
#	203992
#	216286
#	227620
#	244724
#	263375
#	280042
#
# Disc length: 3906 seconds
#
# Revision: 0
# Processed by: cddbd v1.5.2PL0 Copyright (c) Steve Scherf et al.
# Submitted via: dBpowerAMP V4.0
#
DISCID=2a0f4014
DTITLE=Various Artist - Bjud upp till dans Cd 2
DYEAR=2005
DGENRE=Dansband
TTITLE0=Wizex and Charlotte Nilsson - Tusen och en natt
TTITLE1=Vikingarna - Till mitt eget Blue Hawaii
TTITLE2=Lasse Stefanz and Christina Lindberg - De sista ljuva åren
TTITLE3=Streaplers - Till min kära
TTITLE4=Blackjack - Inget kan stoppa oss nu
TTITLE5=Grönwalls - Du ringde från Flen
TTITLE6=Christer Sjögren - One Night With You
TTITLE7=Kina Jaarnek and Elvis Band - Such A Night
TTITLE8=Hasse Andersson and Kvinnaböske Band - Mina allra bästa minnen
TTITLE9=Schytts - Natten tänder sina ljus
TTITLE10=Barbados - Rosalita
TTITLE11=Wahlströms - Blå blå ögon
TTITLE12=Mats Rådberg and Rankarna - Du kan alltid lita på pojkarna över 35
TTITLE13=Sten and Stanley - En sång om kärlek
TTITLE14=Curt Haagers - Tiotusen röda rosor
TTITLE15=Lasse Stefanz - Oh Julie
TTITLE16=Lotta and Anders Engbergs Orkester - Genom vatten och eld
TTITLE17=Matz Bladhs - Ljus och värme
TTITLE18=Thorleifs - En liten ängel
TTITLE19=Vikingarna - Tack och farväl
EXTD=
EXTT0=
EXTT1=
EXTT2=
EXTT3=
EXTT4=
EXTT5=
EXTT6=
EXTT7=
EXTT8=
EXTT9=
EXTT10=
EXTT11=
EXTT12=
EXTT13=
EXTT14=
EXTT15=
EXTT16=
EXTT17=
EXTT18=
EXTT19=
PLAYORDER=
